<svg width="56" height="56" viewBox="0 0 56 56" fill="none" xmlns="http://www.w3.org/2000/svg">
<rect width="56" height="56" rx="20" fill="#264E3F"/>
<path d="M34.4017 26.4017C34.4017 26.8982 34.3068 27.364 34.1172 27.7991C33.9275 28.2343 33.6681 28.6165 33.3389 28.9456C33.0154 29.2692 32.636 29.5258 32.2008 29.7155C31.7657 29.9051 31.2998 30 30.8033 30H26V27.5983H30.8033C30.9707 27.5983 31.1269 27.5676 31.2719 27.5063C31.417 27.4449 31.5426 27.3612 31.6486 27.2552C31.7601 27.1437 31.8465 27.0153 31.908 26.8703C31.9693 26.7252 32 26.569 32 26.4017C32 26.2343 31.9693 26.0781 31.908 25.933C31.8465 25.788 31.7601 25.6625 31.6486 25.5565C31.5426 25.4449 31.417 25.3584 31.2719 25.2971C31.1269 25.2357 30.9707 25.205 30.8033 25.205H27.5314V22.8033H30.8033C30.9707 22.8033 31.1269 22.7727 31.2719 22.7113C31.417 22.6499 31.5426 22.5662 31.6486 22.4602C31.7601 22.3487 31.8465 22.2204 31.908 22.0753C31.9693 21.9247 32 21.7657 32 21.5983C32 21.431 31.9693 21.2748 31.908 21.1297C31.8465 20.9847 31.7601 20.8591 31.6486 20.7531C31.5426 20.6416 31.417 20.5551 31.2719 20.4937C31.1269 20.4323 30.9707 20.4017 30.8033 20.4017H26V18H30.8033C31.2998 18 31.7657 18.0948 32.2008 18.2845C32.636 18.4742 33.0154 18.7336 33.3389 19.0628C33.6681 19.3863 33.9275 19.7657 34.1172 20.2008C34.3068 20.636 34.4017 21.1018 34.4017 21.5983C34.4017 22.039 34.3208 22.4686 34.159 22.887C33.9972 23.2999 33.7684 23.6708 33.4728 24C33.7684 24.3291 33.9972 24.7029 34.159 25.1213C34.3208 25.5342 34.4017 25.9609 34.4017 26.4017Z" fill="#6C9A7B"/>
<path d="M24.7223 31.3787C24.7223 32.1538 24.5742 32.8855 24.2781 33.5736C23.9906 34.253 23.59 34.8496 23.0761 35.3635C22.5709 35.8687 21.9743 36.2693 21.2862 36.5655C20.6068 36.8529 19.8795 36.9967 19.1043 36.9967C18.4075 36.9967 17.7368 36.8747 17.0922 36.6308C16.4565 36.3869 15.8815 36.0298 15.3677 35.5595C14.8538 36.0298 14.2745 36.3869 13.63 36.6308C12.9854 36.8747 12.3148 36.9967 11.618 36.9967C10.8428 36.9967 10.1112 36.8529 9.42306 36.5655C8.74367 36.2693 8.14703 35.8687 7.63314 35.3635C7.12795 34.8496 6.72729 34.253 6.43115 33.5736C6.14372 32.8855 6 32.1538 6 31.3787V18H9.74968V31.3787C9.74968 31.6399 9.79758 31.8882 9.8934 32.1234C9.98921 32.3498 10.1199 32.5501 10.2853 32.7244C10.4596 32.8899 10.6599 33.0205 10.8863 33.1163C11.1128 33.2122 11.3567 33.26 11.618 33.26C11.8793 33.26 12.1232 33.2122 12.3497 33.1163C12.5761 33.0205 12.772 32.8899 12.9376 32.7244C13.1118 32.5501 13.2468 32.3498 13.3426 32.1234C13.4384 31.8882 13.4863 31.6399 13.4863 31.3787V18H17.236V31.3787C17.236 31.6399 17.2839 31.8882 17.3797 32.1234C17.4755 32.3498 17.6061 32.5501 17.7717 32.7244C17.9459 32.8899 18.1462 33.0205 18.3727 33.1163C18.5991 33.2122 18.843 33.26 19.1043 33.26C19.3656 33.26 19.6095 33.2122 19.8359 33.1163C20.0624 33.0205 20.2584 32.8899 20.4239 32.7244C20.598 32.5501 20.7331 32.3498 20.8289 32.1234C20.9334 31.8882 20.9857 31.6399 20.9857 31.3787V18H24.7223V31.3787Z" fill="#6C9A7B"/>
<path d="M35 23.6974C35 22.9112 35.1502 22.1736 35.4505 21.4847C35.7508 20.7957 36.1572 20.195 36.6695 19.6827C37.1906 19.1615 37.7957 18.7508 38.4847 18.4505C39.1736 18.1502 39.9112 18 40.6974 18H49.4156V21.8026H40.6974C40.4324 21.8026 40.185 21.8512 39.9554 21.9484C39.7258 22.0456 39.5225 22.1825 39.3459 22.3591C39.1781 22.527 39.0456 22.7257 38.9484 22.9554C38.8513 23.185 38.8026 23.4324 38.8026 23.6974C38.8026 23.9623 38.8513 24.2141 38.9484 24.4526C39.0456 24.6822 39.1781 24.8854 39.3459 25.0621C39.5225 25.2299 39.7258 25.3624 39.9554 25.4596C40.185 25.5567 40.4324 25.6053 40.6974 25.6053H44.5C45.2862 25.6053 46.0237 25.7554 46.7127 26.0558C47.4105 26.3473 48.0156 26.7536 48.5279 27.2748C49.0491 27.787 49.4554 28.3922 49.7469 29.09C50.0472 29.7789 50.1973 30.5165 50.1973 31.3026C50.1973 32.0888 50.0472 32.8264 49.7469 33.5154C49.4554 34.2043 49.0491 34.8094 48.5279 35.3306C48.0156 35.8428 47.4105 36.2492 46.7127 36.5495C46.0237 36.8499 45.2862 37 44.5 37H36.06V33.1974H44.5C44.765 33.1974 45.0123 33.1488 45.242 33.0516C45.4717 32.9544 45.6704 32.8219 45.8382 32.6541C46.0149 32.4775 46.1518 32.2743 46.2489 32.0446C46.3462 31.815 46.3947 31.5677 46.3947 31.3026C46.3947 31.0376 46.3462 30.7903 46.2489 30.5606C46.1518 30.331 46.0149 30.1323 45.8382 29.9644C45.6704 29.7877 45.4717 29.6509 45.242 29.5537C45.0123 29.4565 44.765 29.4079 44.5 29.4079H40.6974C39.9112 29.4079 39.1736 29.2578 38.4847 28.9575C37.7957 28.6571 37.1906 28.2508 36.6695 27.7385C36.1572 27.2174 35.7508 26.6123 35.4505 25.9233C35.1502 25.2255 35 24.4835 35 23.6974Z" fill="#6C9A7B"/>
</svg>
