<svg width="231" height="60" viewBox="0 0 231 60" fill="#eee" xmlns="http://www.w3.org/2000/svg">
<path d="M31.4385 37.2333C31.4385 38.4321 31.2096 39.5636 30.7516 40.6277C30.3071 41.6784 29.6875 42.601 28.8928 43.3957C28.1115 44.177 27.1889 44.7966 26.1247 45.2546C25.0741 45.6991 23.9493 45.9213 22.7505 45.9213C21.6729 45.9213 20.6357 45.7327 19.639 45.3557C18.6557 44.9785 17.7667 44.4262 16.9719 43.6988C16.1772 44.4262 15.2815 44.9785 14.2847 45.3557C13.288 45.7327 12.2507 45.9213 11.1732 45.9213C9.9744 45.9213 8.84293 45.6991 7.77881 45.2546C6.72817 44.7966 5.80549 44.177 5.01076 43.3957C4.22951 42.601 3.6099 41.6784 3.15193 40.6277C2.70743 39.5636 2.48517 38.4321 2.48517 37.2333V16.5437H8.28393V37.2333C8.28393 37.6374 8.35802 38.0213 8.50619 38.385C8.65436 38.7352 8.8564 39.045 9.11232 39.3144C9.38172 39.5703 9.69153 39.7723 10.0417 39.9205C10.392 40.0687 10.7692 40.1428 11.1732 40.1428C11.5773 40.1428 11.9545 40.0687 12.3046 39.9205C12.6549 39.7723 12.9579 39.5703 13.2139 39.3144C13.4833 39.045 13.6921 38.7352 13.8402 38.385C13.9884 38.0213 14.0625 37.6374 14.0625 37.2333V16.5437H19.8612V37.2333C19.8612 37.6374 19.9353 38.0213 20.0835 38.385C20.2317 38.7352 20.4337 39.045 20.6896 39.3144C20.959 39.5703 21.2688 39.7723 21.619 39.9205C21.9693 40.0687 22.3465 40.1428 22.7505 40.1428C23.1546 40.1428 23.5318 40.0687 23.882 39.9205C24.2322 39.7723 24.5352 39.5703 24.7912 39.3144C25.0606 39.045 25.2694 38.7352 25.4175 38.385C25.5792 38.0213 25.66 37.6374 25.66 37.2333V16.5437H31.4385V37.2333ZM83.0011 36.8292C83.0011 38.028 82.772 39.1528 82.3141 40.2034C81.8561 41.254 81.2297 42.1767 80.4351 42.9715C79.6538 43.7527 78.7379 44.3723 77.6873 44.8302C76.6365 45.2882 75.5119 45.5172 74.313 45.5172H59.8262V16.5437H74.313C75.5119 16.5437 76.6365 16.7726 77.6873 17.2306C78.7379 17.6886 79.6538 18.3149 80.4351 19.1097C81.2297 19.8909 81.8561 20.8069 82.3141 21.8575C82.772 22.9081 83.0011 24.0329 83.0011 25.2317C83.0011 25.7705 82.927 26.3227 82.7788 26.8885C82.6306 27.4542 82.4219 27.9997 82.1525 28.525C81.883 29.0503 81.5597 29.5286 81.1827 29.9596C80.8055 30.3906 80.3879 30.7476 79.9299 31.0304C80.4014 31.2864 80.8257 31.6366 81.2029 32.0811C81.58 32.5121 81.9033 32.9903 82.1727 33.5156C82.4421 34.0409 82.6441 34.5932 82.7788 35.1724C82.927 35.7382 83.0011 36.2904 83.0011 36.8292ZM65.625 39.7184H74.313C74.7172 39.7184 75.0942 39.6444 75.4445 39.4962C75.7947 39.3481 76.0978 39.146 76.3537 38.8901C76.6231 38.6207 76.8319 38.3109 76.9801 37.9607C77.1282 37.6105 77.2023 37.2333 77.2023 36.8292C77.2023 36.4251 77.1282 36.048 76.9801 35.6977C76.8319 35.3476 76.6231 35.0444 76.3537 34.7885C76.0978 34.5191 75.7947 34.3104 75.4445 34.1621C75.0942 34.014 74.7172 33.9399 74.313 33.9399H65.625V39.7184ZM65.625 28.1411H74.313C74.7172 28.1411 75.0942 28.0671 75.4445 27.9189C75.7947 27.7708 76.0978 27.5687 76.3537 27.3127C76.6231 27.0433 76.8319 26.7335 76.9801 26.3833C77.1282 26.0196 77.2023 25.6357 77.2023 25.2317C77.2023 24.8276 77.1282 24.4504 76.9801 24.1002C76.8319 23.75 76.6231 23.447 76.3537 23.191C76.0978 22.9217 75.7947 22.7128 75.4445 22.5647C75.0942 22.4165 74.7172 22.3424 74.313 22.3424H65.625V28.1411ZM97.2858 25.2317C97.2858 24.0329 97.5148 22.9081 97.9727 21.8575C98.4307 20.8069 99.0504 19.8909 99.8316 19.1097C100.626 18.3149 101.549 17.6886 102.6 17.2306C103.65 16.7726 104.776 16.5437 105.973 16.5437H119.269V22.3424H105.973C105.57 22.3424 105.192 22.4165 104.843 22.5647C104.492 22.7128 104.183 22.9217 103.913 23.191C103.657 23.447 103.455 23.75 103.307 24.1002C103.159 24.4504 103.085 24.8276 103.085 25.2317C103.085 25.6357 103.159 26.0196 103.307 26.3833C103.455 26.7335 103.657 27.0433 103.913 27.3127C104.183 27.5687 104.492 27.7708 104.843 27.9189C105.192 28.0671 105.57 28.1411 105.973 28.1411H111.773C112.972 28.1411 114.096 28.3702 115.147 28.8281C116.211 29.2727 117.133 29.8922 117.914 30.687C118.71 31.4682 119.33 32.3909 119.773 33.455C120.232 34.5057 120.46 35.6304 120.46 36.8292C120.46 38.028 120.232 39.1528 119.773 40.2034C119.33 41.254 118.71 42.1767 117.914 42.9715C117.133 43.7527 116.211 44.3723 115.147 44.8302C114.096 45.2882 112.972 45.5172 111.773 45.5172H98.9022V39.7184H111.773C112.177 39.7184 112.554 39.6444 112.904 39.4962C113.254 39.3481 113.557 39.146 113.814 38.8901C114.083 38.6207 114.292 38.3109 114.44 37.9607C114.588 37.6105 114.662 37.2333 114.662 36.8292C114.662 36.4251 114.588 36.048 114.44 35.6977C114.292 35.3476 114.083 35.0444 113.814 34.7885C113.557 34.5191 113.254 34.3104 112.904 34.1621C112.554 34.014 112.177 33.9399 111.773 33.9399H105.973C104.776 33.9399 103.65 33.7109 102.6 33.2529C101.549 32.795 100.626 32.1754 99.8316 31.3942C99.0504 30.5994 98.4307 29.6767 97.9727 28.6261C97.5148 27.5619 97.2858 26.4305 97.2858 25.2317ZM152.667 31.1517C152.667 32.5256 152.485 33.8524 152.122 35.132C151.771 36.3982 151.272 37.5902 150.626 38.7083C149.979 39.8128 149.198 40.823 148.283 41.739C147.366 42.6549 146.357 43.4429 145.252 44.1029C144.147 44.7494 142.955 45.2479 141.676 45.598C140.396 45.9618 139.07 46.1436 137.695 46.1436C136.321 46.1436 134.995 45.9618 133.715 45.598C132.449 45.2479 131.257 44.7494 130.139 44.1029C129.034 43.4429 128.024 42.6549 127.108 41.739C126.192 40.823 125.404 39.8128 124.744 38.7083C124.098 37.5902 123.593 36.3982 123.229 35.132C122.879 33.8524 122.703 32.5256 122.703 31.1517C122.703 29.7778 122.879 28.451 123.229 27.1713C123.593 25.8917 124.098 24.6996 124.744 23.5951C125.404 22.4906 126.192 21.4803 127.108 20.5644C128.024 19.6484 129.034 18.8672 130.139 18.2207C131.257 17.5741 132.449 17.0757 133.715 16.7255C134.995 16.3618 136.321 16.1799 137.695 16.1799C139.07 16.1799 140.396 16.3618 141.676 16.7255C142.955 17.0757 144.147 17.5741 145.252 18.2207C146.357 18.8672 147.366 19.6484 148.283 20.5644C149.198 21.4803 149.979 22.4906 150.626 23.5951C151.272 24.6996 151.771 25.8917 152.122 27.1713C152.485 28.451 152.667 29.7778 152.667 31.1517ZM146.909 31.1517C146.909 29.8855 146.666 28.6934 146.182 27.5754C145.697 26.444 145.037 25.4674 144.202 24.6457C143.379 23.8106 142.403 23.1506 141.271 22.6657C140.154 22.1808 138.961 21.9383 137.695 21.9383C136.415 21.9383 135.217 22.1808 134.099 22.6657C132.981 23.1506 132.004 23.8106 131.169 24.6457C130.334 25.4674 129.674 26.444 129.189 27.5754C128.704 28.6934 128.462 29.8855 128.462 31.1517C128.462 32.4178 128.704 33.6099 129.189 34.7279C129.674 35.8324 130.334 36.8022 131.169 37.6374C132.004 38.4725 132.981 39.1325 134.099 39.6175C135.217 40.1023 136.415 40.3448 137.695 40.3448C138.961 40.3448 140.154 40.1023 141.271 39.6175C142.403 39.1325 143.379 38.4725 144.202 37.6374C145.037 36.8022 145.697 35.8324 146.182 34.7279C146.666 33.6099 146.909 32.4178 146.909 31.1517ZM179.337 33.9399C179.337 35.5429 179.034 37.0514 178.428 38.4658C177.822 39.8667 176.994 41.0924 175.943 42.1431C174.892 43.1802 173.66 44.0019 172.245 44.608C170.845 45.2141 169.343 45.5172 167.739 45.5172C166.137 45.5172 164.629 45.2141 163.213 44.608C161.813 44.0019 160.587 43.1802 159.537 42.1431C158.499 41.0924 157.678 39.8667 157.072 38.4658C156.465 37.0514 156.162 35.5429 156.162 33.9399V16.5437H161.941V33.9399C161.941 34.7346 162.089 35.4822 162.386 36.1827C162.695 36.883 163.113 37.496 163.639 38.0213C164.163 38.5466 164.777 38.9642 165.477 39.2739C166.191 39.5703 166.945 39.7184 167.739 39.7184C168.535 39.7184 169.282 39.5703 169.982 39.2739C170.697 38.9642 171.316 38.5466 171.841 38.0213C172.367 37.496 172.777 36.883 173.074 36.1827C173.383 35.4822 173.539 34.7346 173.539 33.9399V16.5437H179.337V33.9399ZM204.654 45.5172H184.369V16.5437H190.167V39.7184H204.654V45.5172ZM205.381 25.2317C205.381 24.0329 205.611 22.9081 206.068 21.8575C206.526 20.8069 207.146 19.8909 207.927 19.1097C208.721 18.3149 209.644 17.6886 210.695 17.2306C211.746 16.7726 212.871 16.5437 214.07 16.5437H227.364V22.3424H214.07C213.665 22.3424 213.288 22.4165 212.938 22.5647C212.587 22.7128 212.278 22.9217 212.008 23.191C211.752 23.447 211.551 23.75 211.402 24.1002C211.254 24.4504 211.18 24.8276 211.18 25.2317C211.18 25.6357 211.254 26.0196 211.402 26.3833C211.551 26.7335 211.752 27.0433 212.008 27.3127C212.278 27.5687 212.587 27.7708 212.938 27.9189C213.288 28.0671 213.665 28.1411 214.07 28.1411H219.868C221.067 28.1411 222.191 28.3702 223.242 28.8281C224.306 29.2727 225.229 29.8922 226.011 30.687C226.805 31.4682 227.425 32.3909 227.869 33.455C228.327 34.5057 228.557 35.6304 228.557 36.8292C228.557 38.028 228.327 39.1528 227.869 40.2034C227.425 41.254 226.805 42.1767 226.011 42.9715C225.229 43.7527 224.306 44.3723 223.242 44.8302C222.191 45.2882 221.067 45.5172 219.868 45.5172H206.998V39.7184H219.868C220.272 39.7184 220.649 39.6444 221 39.4962C221.349 39.3481 221.652 39.146 221.909 38.8901C222.178 38.6207 222.387 38.3109 222.535 37.9607C222.683 37.6105 222.757 37.2333 222.757 36.8292C222.757 36.4251 222.683 36.048 222.535 35.6977C222.387 35.3476 222.178 35.0444 221.909 34.7885C221.652 34.5191 221.349 34.3104 221 34.1621C220.649 34.014 220.272 33.9399 219.868 33.9399H214.07C212.871 33.9399 211.746 33.7109 210.695 33.2529C209.644 32.795 208.721 32.1754 207.927 31.3942C207.146 30.5994 206.526 29.6767 206.068 28.6261C205.611 27.5619 205.381 26.4305 205.381 25.2317Z" />
<path d="M53.5345 39.7241H37.5C36.7859 39.7241 36.2069 40.3031 36.2069 41.0172V44.2241C36.2069 44.9383 36.7859 45.5172 37.5 45.5172H53.5345C54.2487 45.5172 54.8276 44.9383 54.8276 44.2241V41.0172C54.8276 40.3031 54.2487 39.7241 53.5345 39.7241Z" />
<path d="M53.5345 28.1379H37.5C36.7859 28.1379 36.2069 28.7169 36.2069 29.431V32.6379C36.2069 33.3521 36.7859 33.931 37.5 33.931H53.5345C54.2487 33.931 54.8276 33.3521 54.8276 32.6379V29.431C54.8276 28.7169 54.2487 28.1379 53.5345 28.1379Z" />
<path d="M53.5345 16.5517H37.5C36.7859 16.5517 36.2069 17.1307 36.2069 17.8448V21.0517C36.2069 21.7659 36.7859 22.3448 37.5 22.3448H53.5345C54.2487 22.3448 54.8276 21.7659 54.8276 21.0517V17.8448C54.8276 17.1307 54.2487 16.5517 53.5345 16.5517Z" />
<path d="M91.4385 23.0605C91.4385 23.4661 91.361 23.8467 91.2061 24.2021C91.0511 24.5576 90.8392 24.8698 90.5703 25.1387C90.306 25.403 89.9961 25.6126 89.6406 25.7676C89.2852 25.9225 88.9046 26 88.499 26H84.5752V24.0381H88.499C88.6357 24.0381 88.7633 24.013 88.8818 23.9629C89.0003 23.9128 89.1029 23.8444 89.1895 23.7578C89.2806 23.6667 89.3512 23.5618 89.4014 23.4434C89.4515 23.3249 89.4766 23.1973 89.4766 23.0605C89.4766 22.9238 89.4515 22.7962 89.4014 22.6777C89.3512 22.5592 89.2806 22.4567 89.1895 22.3701C89.1029 22.279 89.0003 22.2083 88.8818 22.1582C88.7633 22.1081 88.6357 22.083 88.499 22.083H85.8262V20.1211H88.499C88.6357 20.1211 88.7633 20.096 88.8818 20.0459C89.0003 19.9958 89.1029 19.9274 89.1895 19.8408C89.2806 19.7497 89.3512 19.6449 89.4014 19.5264C89.4515 19.4033 89.4766 19.2734 89.4766 19.1367C89.4766 19 89.4515 18.8724 89.4014 18.7539C89.3512 18.6354 89.2806 18.5329 89.1895 18.4463C89.1029 18.3551 89.0003 18.2845 88.8818 18.2344C88.7633 18.1842 88.6357 18.1592 88.499 18.1592H84.5752V16.1973H88.499C88.9046 16.1973 89.2852 16.2747 89.6406 16.4297C89.9961 16.5846 90.306 16.7965 90.5703 17.0654C90.8392 17.3298 91.0511 17.6396 91.2061 17.9951C91.361 18.3506 91.4385 18.7311 91.4385 19.1367C91.4385 19.4967 91.3724 19.8477 91.2402 20.1895C91.1081 20.5267 90.9212 20.8298 90.6797 21.0986C90.9212 21.3675 91.1081 21.6729 91.2402 22.0146C91.3724 22.3519 91.4385 22.7005 91.4385 23.0605Z" />
</svg>
